<svg width="225" height="22" viewBox="0 0 225 22" fill="none" xmlns="http://www.w3.org/2000/svg">
<g clip-path="url(#clip0_140_48454)">
<mask id="mask0_140_48454" style="mask-type:luminance" maskUnits="userSpaceOnUse" x="0" y="0" width="225" height="22">
<path d="M224.894 0.285706H0V21.5381H224.894V0.285706Z" fill="white"/>
</mask>
<g mask="url(#mask0_140_48454)">
<path fill-rule="evenodd" clip-rule="evenodd" d="M8.63351 21.061H12.811V4.41662H8.63351V21.061ZM-0.00390625 4.41662H21.4168V0.629395H-0.00390625V4.41662Z" fill="white"/>
<path fill-rule="evenodd" clip-rule="evenodd" d="M32.6152 0.99997H62.384C63.2527 0.999841 64.1131 1.19668 64.9159 1.57924C65.7184 1.9618 66.4478 2.52258 67.0621 3.2296C67.6766 3.93659 68.1638 4.77596 68.4965 5.69976C68.8288 6.62355 69 7.61367 69 8.61357V13.3864C69 14.3862 68.8288 15.3762 68.4965 16.3C68.1641 17.2237 67.6769 18.063 67.0624 18.77C66.4481 19.477 65.719 20.0378 64.9164 20.4204C64.1137 20.8031 63.2535 21 62.3848 21H32.6152C31.7465 21 30.8863 20.8031 30.0836 20.4204C29.2811 20.0378 28.5519 19.477 27.9375 18.77C27.3233 18.063 26.836 17.2237 26.5036 16.3C26.1711 15.3762 26 14.3862 26 13.3864V8.61357C26 7.61373 26.1711 6.62371 26.5036 5.69999C26.836 4.77626 27.3233 3.93695 27.9375 3.22993C28.5519 2.52294 29.2811 1.96214 30.0836 1.57952C30.8863 1.1969 31.7465 0.99997 32.6152 0.99997Z" fill="#FF5042"/>
<path fill-rule="evenodd" clip-rule="evenodd" d="M79.8443 21.1247V13.5773H87.7221C88.738 13.5501 89.7536 13.6352 90.7506 13.8311C91.4513 14.0003 91.9376 14.3003 92.21 14.7311C92.5117 15.2868 92.653 15.9155 92.618 16.5469V21.1258H96.7909V16.2615C96.7909 15.1247 96.5561 14.2668 96.086 13.6879C95.6152 13.109 94.9018 12.7391 93.9677 12.4879C93.1859 12.2567 92.3845 12.0979 91.5736 12.0133H91.8556C92.3301 12.0468 92.8072 12.0259 93.2769 11.951C94.0272 11.7929 94.731 11.4633 95.3327 10.9879C95.929 10.5668 96.4094 10.0019 96.7292 9.34575C97.0844 8.57449 97.2564 7.73139 97.2313 6.88259C97.2313 5.45119 96.9071 4.2775 96.2583 3.36154C95.5825 2.42514 94.6345 1.71951 93.5437 1.34048C92.2278 0.883294 90.8411 0.66371 89.4483 0.691982H75.6714V21.1247H79.8443ZM79.8443 4.29199H89.4474C90.6189 4.29199 91.5136 4.53408 92.1308 5.01831C92.4418 5.27207 92.6879 5.59617 92.8489 5.9639C93.0099 6.3316 93.081 6.73231 93.0564 7.13297C93.077 7.56117 93.0048 7.98873 92.845 8.38657C92.6854 8.78438 92.4418 9.14308 92.1308 9.43823C91.5133 10.0067 90.6189 10.2909 89.4474 10.2909H79.8443V4.29312V4.29199ZM121.144 13.7657C120.855 14.6005 120.377 15.3571 119.747 15.9762C119.053 16.6414 118.216 17.1384 117.299 17.4288C116.147 17.7892 114.945 17.9599 113.738 17.9344C112.194 17.9657 110.658 17.692 109.219 17.1291C108.006 16.6581 106.958 15.8397 106.207 14.7765C105.466 13.6432 105.094 12.3086 105.14 10.9554C105.14 9.41894 105.496 8.12948 106.207 7.08701C106.954 6.01614 108.003 5.19171 109.22 4.71859C110.659 4.15567 112.194 3.882 113.739 3.91332C114.951 3.88908 116.159 4.05994 117.316 4.41943C118.241 4.70878 119.085 5.21181 119.78 5.88785C120.416 6.52719 120.885 7.31356 121.145 8.17733H125.287C125.163 6.62308 124.573 5.14256 123.592 3.92996C122.54 2.69902 121.181 1.76765 119.654 1.22995C117.755 0.559741 115.751 0.239239 113.738 0.283993C111.973 0.264915 110.215 0.492684 108.513 0.960685C107.035 1.36291 105.649 2.04939 104.433 2.98174C103.299 3.86827 102.39 5.01005 101.78 6.31417C101.125 7.77224 100.803 9.35813 100.839 10.9563C100.802 12.5494 101.124 14.1304 101.78 15.5826C102.391 16.8767 103.3 18.0073 104.432 18.8815C105.65 19.8038 107.036 20.4796 108.512 20.8709C110.215 21.3291 111.973 21.5522 113.737 21.5341C115.743 21.5782 117.74 21.2682 119.637 20.6183C121.157 20.0983 122.512 19.1827 123.56 17.9657C124.54 16.7675 125.14 15.3051 125.286 13.7645H121.145L121.144 13.7657ZM147.05 15.7394C146.404 16.5764 145.499 17.1761 144.477 17.4446C143.285 17.7647 142.054 17.9188 140.82 17.9025C139.556 17.9198 138.294 17.7657 137.07 17.4446C136.04 17.1846 135.127 16.5836 134.481 15.7394C133.854 14.908 133.54 13.6922 133.54 12.092V0.69311H129.367V12.5352C129.343 13.7402 129.539 14.9395 129.948 16.0735C130.301 17.0303 130.851 17.9018 131.564 18.6314C132.275 19.3405 133.11 19.9132 134.028 20.3208C135.034 20.7682 136.094 21.081 137.182 21.2513C138.385 21.445 139.603 21.54 140.822 21.5355C142.005 21.5397 143.186 21.4446 144.352 21.2513C145.424 21.0766 146.468 20.7638 147.459 20.3208C148.384 19.9081 149.228 19.3363 149.954 18.6314C150.684 17.909 151.246 17.036 151.602 16.0735C152.01 14.9399 152.207 13.7411 152.183 12.5366V0.69452H148.01V12.0931C148.009 13.6941 147.689 14.9098 147.051 15.7405L147.05 15.7394ZM157.015 0.69311V21.1247H174.684V17.6194H161.188V0.69311H157.015ZM181.211 21.1247L188.326 5.15223L195.836 21.1247H200.386L190.751 0.69311H186.232L176.692 21.1247H181.211H181.211ZM207.51 21.1247V13.5773H215.387C216.403 13.5501 217.418 13.6352 218.415 13.8311C219.116 14.0003 219.602 14.3003 219.875 14.7311C220.176 15.2868 220.318 15.9155 220.283 16.5469V21.1258H224.456V16.2615C224.456 15.1247 224.221 14.2668 223.751 13.6879C223.28 13.109 222.46 12.6367 221.556 12.2953C220.766 11.9978 221.046 12.0345 219.582 12.0133H219.864C220.224 12.0222 220.585 12.0014 220.942 11.951C221.693 11.7951 222.397 11.4653 222.998 10.9879C223.594 10.5668 224.074 10.0019 224.394 9.34575C224.749 8.57446 224.921 7.73139 224.896 6.88259C224.896 5.45119 224.572 4.2775 223.923 3.36154C223.247 2.4252 222.299 1.71958 221.209 1.34048C219.893 0.883294 218.506 0.66371 217.113 0.691982H203.335V21.1247H207.508H207.51ZM207.51 4.29199H217.113C218.284 4.29199 219.179 4.53408 219.796 5.01831C220.107 5.27201 220.353 5.59612 220.514 5.96381C220.675 6.33154 220.746 6.73228 220.722 7.13297C220.743 7.5612 220.67 7.98881 220.51 8.38662C220.351 8.78446 220.107 9.14314 219.796 9.43823C219.179 10.0067 218.284 10.2909 217.113 10.2909H207.509V4.29312L207.51 4.29199Z" fill="white"/>
</g>
</g>
<defs>
<clipPath id="clip0_140_48454">
<rect width="225" height="21.4286" fill="white" transform="translate(0 0.285706)"/>
</clipPath>
</defs>
</svg>
